<svg height="40" viewBox="0 0 40 40" width="40" xmlns="http://www.w3.org/2000/svg" xmlns:xlink="http://www.w3.org/1999/xlink"><mask id="a" fill="#fff"><path d="m0 .00630952h19.9936905v19.99130948h-19.9936905z" fill="#fff" fill-rule="evenodd"/></mask><g fill="none" fill-rule="evenodd"><circle cx="20" cy="20" r="19.5" stroke="#2f313f"/><g fill="#2f313f" transform="translate(10 10)"><path d="m9.99686508.00630952c-2.715 0-3.05543651.01150794-4.12170635.06015873-1.06404762.04853175-1.79075397.21753969-2.42662698.46468254-.65738096.25543651-1.21488096.59726191-1.77067461 1.15301588-.55575397.55579365-.89757936 1.11329365-1.15301587 1.7706746-.24714286.63587302-.41615079 1.36257936-.46468254 2.42662698-.04865079 1.06626985-.06015873 1.40670635-.06015873 4.12170635 0 2.7149603.01150794 3.0553968.06015873 4.1216667.04853175 1.0640476.21753968 1.7907539.46468254 2.426627.25543651.6573809.5972619 1.2148809 1.15301587 1.7706746.55579365.5557539 1.11329365.8975793 1.77067461 1.1530555.63587301.2471032 1.36257936.4161111 2.42662698.4646429 1.06626984.0486508 1.40670635.0601587 4.12170635.0601587 2.71496032 0 3.05539682-.0115079 4.12166662-.0601587 1.0640477-.0485318 1.790754-.2175397 2.426627-.4646429.657381-.2554762 1.214881-.5973016 1.7706746-1.1530555.555754-.5557937.8975794-1.1132937 1.1530556-1.7706746.2471032-.6358731.4161111-1.3625794.4646428-2.426627.0486508-1.0662699.0601588-1.4067064.0601588-4.1216667 0-2.715-.011508-3.0554365-.0601588-4.12170635-.0485317-1.06404762-.2175396-1.79075396-.4646428-2.42662698-.2554762-.65738095-.5973016-1.21488095-1.1530556-1.7706746-.5557936-.55575397-1.1132936-.89757937-1.7706746-1.15301588-.635873-.24714285-1.3625793-.41615079-2.426627-.46468254-1.0662698-.04865079-1.4067063-.06015873-4.12166662-.06015873zm0 1.80123016c2.66924602 0 2.98543652.01019842 4.03956352.05829365.9746825.04444445 1.5040079.20730159 1.8562698.34420635.466627.18134921.7996429.39797619 1.1494445.74781746.3498412.34980159.5664682.68281746.7478174 1.14944445.1369048.3522619.2997619.8815873.3442064 1.85626984.0480952 1.05412698.0582936 1.37031746.0582936 4.03960317 0 2.669246-.0101984 2.9854365-.0582936 4.0395635-.0444445.9746825-.2073016 1.5040079-.3442064 1.8562698-.1813492.466627-.3979762.7996429-.7478174 1.1494445-.3498016.3498413-.6828175.5664682-1.1494445.7478174-.3522619.1369048-.8815873.2997619-1.8562698.3442064-1.0539683.0480952-1.3701191.0582936-4.03956352.0582936-2.66948413 0-2.98559524-.0101984-4.03960318-.0582936-.97468253-.0444445-1.50400793-.2073016-1.85626984-.3442064-.46662698-.1813492-.79964285-.3979761-1.14944444-.7478174-.34980159-.3498016-.56646825-.6828175-.74781746-1.1494445-.13690476-.3522619-.29976191-.8815873-.34420635-1.8562698-.04809524-1.054127-.05829365-1.3703175-.05829365-4.0395635 0-2.66928571.01019841-2.98547619.05829365-4.03960317.04444444-.97468254.20730159-1.50400794.34420635-1.85626984.18134921-.46662699.39797619-.79964286.74781746-1.14944445.34980159-.34984127.68281746-.56646825 1.14944444-.74781746.35226191-.13690476.88158731-.2997619 1.85626984-.34420635 1.05412699-.04809523 1.37031747-.05829365 4.03960318-.05829365z" mask="url(#a)"/><path d="m9.99686508 13.3354365c-1.84039683 0-3.33230159-1.4919048-3.33230159-3.3322619 0-1.84039682 1.49190476-3.33230158 3.33230159-3.33230158 1.84035712 0 3.33226192 1.49190476 3.33226192 3.33230158 0 1.8403571-1.4919048 3.3322619-3.33226192 3.3322619zm0-8.46579364c-2.83519841 0-5.13353175 2.29833333-5.13353175 5.13353174 0 2.8351587 2.29833334 5.1334921 5.13353175 5.1334921 2.83515872 0 5.13349202-2.2983334 5.13349202-5.1334921 0-2.83519841-2.2983333-5.13353174-5.13349202-5.13353174z"/><path d="m16.5328175 4.6668254c0 .66253968-.5371032 1.19960317-1.1996429 1.19960317-.6625 0-1.1996032-.53706349-1.1996032-1.19960317 0-.66253969.5371032-1.19964286 1.1996032-1.19964286.6625397 0 1.1996429.53710317 1.1996429 1.19964286"/></g></g></svg>