<?xml version="1.0" encoding="UTF-8"?>
<svg width="40px" height="40px" viewBox="0 0 40 40" version="1.1" xmlns="http://www.w3.org/2000/svg" xmlns:xlink="http://www.w3.org/1999/xlink">
    <!-- Generator: Sketch 54.1 (76490) - https://sketchapp.com -->
    <title>Group 3 Copy</title>
    <desc>Created with Sketch.</desc>
    <g id="Landing-Page" stroke="none" stroke-width="1" fill="none" fill-rule="evenodd">
        <g id="Landing-Desktop" transform="translate(-1115.000000, -2687.000000)">
            <g id="Group-13" transform="translate(174.000000, 2595.000000)">
                <g id="Group-12" transform="translate(885.000000, 92.000000)">
                    <g id="Group-3-Copy" transform="translate(56.000000, 0.000000)">
                        <circle id="Oval" stroke="#2F313F" cx="20" cy="20" r="19.5"></circle>
                        <path d="M16.2896,27.9178419 C23.8368,27.9178419 27.9648,21.6650419 27.9648,16.2426419 C27.9648,16.0650419 27.9648,15.8882419 27.9528,15.7122419 C28.7558651,15.1313706 29.4490844,14.4121454 30,13.5882419 C29.2511032,13.9200833 28.4566634,14.1377048 27.6432,14.2338419 C28.4997952,13.7210275 29.1408988,12.9144595 29.4472,11.9642419 C28.641726,12.4422061 27.7605169,12.7790515 26.8416,12.9602419 C25.5696662,11.6077573 23.5485755,11.276732 21.9116394,12.1527858 C20.2747034,13.0288397 19.42902,14.8941025 19.8488,16.7026419 C16.5495166,16.5372415 13.4755806,14.9789005 11.392,12.4154419 C10.3028982,14.2903577 10.8591903,16.6889295 12.6624,17.8930419 C12.009393,17.8736879 11.3706235,17.6975324 10.8,17.3794419 C10.8,17.3962419 10.8,17.4138419 10.8,17.4314419 C10.8005345,19.3847163 12.1774012,21.06707 14.092,21.4538419 C13.4878957,21.6185939 12.8540645,21.6426773 12.2392,21.5242419 C12.7767583,23.1957802 14.3172596,24.340869 16.0728,24.3738419 C14.619788,25.5157874 12.8248476,26.1357041 10.9768,26.1338419 C10.6503229,26.1332151 10.3241633,26.1134479 10,26.0746419 C11.8765088,27.2788631 14.0599307,27.9176154 16.2896,27.9146419" id="Path" fill="#2F313F" fill-rule="nonzero"></path>
                    </g>
                </g>
            </g>
        </g>
    </g>
</svg>